<?xml version="1.0" standalone="no"?>
<!DOCTYPE svg PUBLIC "-//W3C//DTD SVG 20010904//EN"
 "http://www.w3.org/TR/2001/REC-SVG-20010904/DTD/svg10.dtd">
<svg version="1.0" xmlns="http://www.w3.org/2000/svg"
 width="900.000000pt" height="900.000000pt" viewBox="0 0 900.000000 900.000000"
 preserveAspectRatio="xMidYMid meet">

<g transform="translate(0.000000,900.000000) scale(0.100000,-0.100000)"
fill="#000000" stroke="none">
<path d="M2182 7624 c-29 -7 -67 -21 -85 -30 -38 -19 -639 -613 -672 -665 -71
-110 -72 -275 -3 -414 13 -26 353 -374 971 -992 l952 -953 -951 -952 c-835
-836 -955 -960 -978 -1010 -36 -78 -49 -149 -44 -234 8 -127 22 -145 351 -474
160 -161 310 -306 331 -322 93 -67 268 -89 379 -48 32 12 78 39 105 60 26 21
463 455 972 964 l925 926 955 -953 c881 -880 960 -956 1015 -980 80 -34 164
-47 243 -36 116 17 143 37 455 348 158 157 301 307 317 332 74 114 94 265 50
384 -22 58 -55 93 -986 1025 l-964 965 931 930 c571 571 946 952 969 987 76
116 93 293 38 408 -37 79 -597 641 -684 687 -79 41 -151 56 -238 51 -148 -10
-75 54 -1144 -1012 l-962 -961 -953 952 c-1029 1028 -986 989 -1126 1019 -81
17 -101 17 -169 -2z"/>
</g>
</svg>
